<svg width="1em" height="1em" viewBox="0 0 24 24" xmlns="http://www.w3.org/2000/svg"><path d="M1.042 7a11.496 11.496 0 002.742 4.547l-2.243 2.402a.4.4 0 00.02.565l.877.82a.4.4 0 00.565-.02l2.3-2.464c.837.6 1.757 1.091 2.74 1.451l-.77 2.874a.4.4 0 00.283.49l1.16.31a.4.4 0 00.49-.283l.768-2.87a11.568 11.568 0 004.052 0l.769 2.87a.4.4 0 00.49.283l1.159-.31a.4.4 0 00.283-.49l-.77-2.874c.983-.36 1.903-.85 2.74-1.45l2.3 2.463a.4.4 0 00.565.02l.877-.82a.4.4 0 00.02-.565l-2.243-2.402A11.495 11.495 0 0022.958 7h-2.124A9.503 9.503 0 0112 13a9.503 9.503 0 01-8.835-6H1.042z"></path></svg>