<svg width="1em" height="1em" viewBox="0 0 24 24" xmlns="http://www.w3.org/2000/svg"><path d="M12 15.911a4.001 4.001 0 100-8.002 4.001 4.001 0 000 8.002z"></path><path fill-rule="evenodd" clip-rule="evenodd" d="M12 19.66c-7.357 0-10.485-6.342-10.94-7.362a.337.337 0 01-.004-.277C1.499 10.96 4.625 4.16 12 4.16c7.376 0 10.502 6.8 10.945 7.861a.337.337 0 01-.004.277c-.455 1.02-3.584 7.362-10.94 7.362zm-9.13-6.793v.002l.001-.003v.001zm.482-1.005c-.05.095-.098.184-.14.268l.113.201a12.3 12.3 0 001.637 2.215C6.447 16.136 8.701 17.66 12 17.66c3.3 0 5.553-1.524 7.038-3.114a12.296 12.296 0 001.75-2.416 13.248 13.248 0 00-1.794-2.653c-1.5-1.717-3.744-3.317-6.994-3.317-3.25 0-5.493 1.6-6.995 3.317a13.25 13.25 0 00-1.653 2.386zm17.778 1.005v-.001.003-.002z"></path></svg>