<svg xmlns="http://www.w3.org/2000/svg" fill="none" viewBox="0 0 40 40" class="iconSvg" height="40" width="40" focusable="false"><path fill="#D80027" d="M20 40c11.046 0 20-8.954 20-20S31.046 0 20 0 0 8.954 0 20s8.954 20 20 20z"></path><path fill="#FFDA44" d="M10.945 12.172l1.727 5.312h5.586l-4.516 3.29 1.727 5.312-4.524-3.281-4.523 3.28 1.734-5.312-4.523-3.289h5.586l1.726-5.312zM23.71 30.977l-1.32-1.625-1.953.757 1.133-1.758-1.32-1.632 2.023.539 1.141-1.758.11 2.094 2.03.539-1.96.75.117 2.094zM26.336 26.21l.625-2L25.25 23l2.094-.031.617-2 .68 1.984 2.093-.023-1.68 1.25.673 1.984-1.711-1.21-1.68 1.257zM29.875 14.68l-.922 1.883 1.5 1.46-2.07-.296-.922 1.875-.36-2.063-2.078-.297 1.86-.976-.36-2.07 1.5 1.46 1.852-.976zM23.766 8.977l-.157 2.085 1.946.79-2.04.5-.148 2.093-1.101-1.78-2.04.5 1.352-1.602-1.11-1.774 1.946.79 1.352-1.602z"></path></svg>