<svg xmlns="http://www.w3.org/2000/svg" fill="none" viewBox="0 0 40 40" class="iconSvg" height="40" width="40" focusable="false"><path fill="#0052B4" d="M20 40c11.046 0 20-8.954 20-20S31.046 0 20 0 0 8.954 0 20s8.954 20 20 20z"></path><path fill="#FFDA44" d="M20 7.826l.648 1.993h2.095l-1.695 1.232.647 1.992L20 11.813l-1.695 1.232.647-1.993-1.695-1.232h2.095L20 7.826zM11.392 11.392l1.867.951 1.482-1.482-.328 2.07 1.867.951-2.07.328-.328 2.07-.951-1.867-2.07.328 1.482-1.482-.951-1.867zM7.826 20l1.993-.648v-2.095l1.232 1.695 1.993-.647L11.812 20l1.232 1.695-1.993-.647-1.232 1.695v-2.095L7.826 20zM11.392 28.608l.951-1.867-1.482-1.482 2.07.328.951-1.867.328 2.07 2.07.328-1.867.951.328 2.07-1.482-1.482-1.867.951zM20 32.174l-.648-1.993h-2.095l1.695-1.232-.647-1.992L20 28.188l1.695-1.231-.647 1.992 1.695 1.232h-2.095L20 32.174zM28.608 28.608l-1.867-.951-1.482 1.482.328-2.07-1.866-.951 2.069-.328.328-2.07.951 1.867 2.07-.328-1.482 1.482.951 1.867zM32.174 20l-1.993.648v2.095l-1.232-1.695-1.992.647L28.188 20l-1.231-1.695 1.992.647 1.232-1.695v2.095l1.993.648zM28.608 11.392l-.951 1.867 1.482 1.482-2.07-.329-.951 1.868-.328-2.07-2.07-.328 1.867-.951-.328-2.07 1.482 1.482 1.867-.951z"></path></svg>