<svg xmlns="http://www.w3.org/2000/svg" fill="none" viewBox="0 0 41 40"><path fill="#0663EF" d="m30.8326 13.3735-5.7582-5.0524C24.2666 7.6123 23 8.186 23 9.2607v1.8346a.75.75 0 0 1-.5921.7332l-5.5997 1.2061c-1.5789.3401-1.5789 2.5927 0 2.9328l5.5997 1.2061a.75.75 0 0 1 .5921.7332v1.8346c0 1.0747 1.2666 1.6484 2.0744.9395l5.7582-5.0523c.6809-.5975.6809-1.6576 0-2.255M10.1674 24.3735l5.7582-5.0524c.8078-.7088 2.0744-.1351 2.0744.9396v1.8346a.75.75 0 0 0 .5921.7332l5.5997 1.2061c1.5789.3401 1.5789 2.5927 0 2.9328l-5.5997 1.2061a.75.75 0 0 0-.5921.7332v1.8346c0 1.0747-1.2666 1.6484-2.0744.9395l-5.7582-5.0523c-.6809-.5975-.6809-1.6576 0-2.255"/></svg>