<svg xmlns="http://www.w3.org/2000/svg" fill="none" viewBox="0 0 40 40" class="iconSvg" height="40" width="40" focusable="false"><path fill="#D80027" d="M20 40c11.046 0 20-8.954 20-20S31.046 0 20 0 0 8.954 0 20s8.954 20 20 20z"></path><path fill="#F0F0F0" d="M19.181 16.343l1.641 2.26 2.658-.86-1.644 2.259 1.64 2.26-2.656-.864-1.643 2.26.001-2.795-2.656-.865 2.657-.861.002-2.794z"></path><path fill="#F0F0F0" d="M14.703 25.652a5.652 5.652 0 112.688-10.625 6.956 6.956 0 100 9.945c-.8.434-1.715.68-2.688.68z"></path></svg>